HIERARCHY
ROOT Hips
{
	OFFSET 0.000000 35.082581 0.000000
	CHANNELS 6 Xposition Yposition Zposition Xrotation Yrotation Zrotation 
	JOINT Spine
	{
		OFFSET 0.000000 6.876099 0.125700
		CHANNELS 3 Xrotation Yrotation Zrotation
		JOINT Spine1
		{
			OFFSET 0.000000 5.730043 0.104720
			CHANNELS 3 Xrotation Yrotation Zrotation
			JOINT Spine1_split
			{
				OFFSET 0.000000 5.730043 0.104720
				CHANNELS 3 Xrotation Yrotation Zrotation
				JOINT Spine2
				{
					OFFSET 0.000000 5.730043 0.104720
					CHANNELS 3 Xrotation Yrotation Zrotation
					JOINT Neck
					{
						OFFSET 0.000000 10.314075 0.188496
						CHANNELS 3 Xrotation Yrotation Zrotation
						JOINT Head
						{
							OFFSET 0.000000 7.643700 -2.377400
							CHANNELS 3 Xrotation Yrotation Zrotation
							JOINT HeadTop_End
							{
								OFFSET 0.000000 43.788605 -13.619600
								CHANNELS 3 Xrotation Yrotation Zrotation
								End Site
								{
									OFFSET 0.000000 0.000000 0.000000
								}
							}
						}
					}
					JOINT LeftShoulder
					{
						OFFSET 2.196100 4.412489 0.087492
						CHANNELS 3 Xrotation Yrotation Zrotation
						JOINT LeftShoulder_split
						{
							OFFSET 2.196100 4.412489 0.087492
							CHANNELS 3 Xrotation Yrotation Zrotation
							JOINT LeftArm
							{
								OFFSET 8.771219 -2.981674 -0.026999
								CHANNELS 3 Xrotation Yrotation Zrotation
								JOINT LeftForeArm
								{
									OFFSET 8.512804 0.000000 -0.000000
									CHANNELS 3 Xrotation Yrotation Zrotation
									JOINT LeftHand
									{
										OFFSET 18.484802 0.000000 -0.000000
										CHANNELS 3 Xrotation Yrotation Zrotation
										JOINT LeftHandThumb1
										{
											OFFSET 2.499420 -1.158070 2.653252
											CHANNELS 3 Xrotation Yrotation Zrotation
											JOINT LeftHandThumb2
											{
												OFFSET 2.370079 -1.368366 1.368366
												CHANNELS 3 Xrotation Yrotation Zrotation
												JOINT LeftHandThumb3
												{
													OFFSET 2.676727 -1.545410 1.545409
													CHANNELS 3 Xrotation Yrotation Zrotation
													JOINT LeftHandThumb4
													{
														OFFSET 1.692226 -0.977005 0.977007
														CHANNELS 3 Xrotation Yrotation Zrotation
														End Site
														{
															OFFSET 0.000000 0.000000 0.000000
														}
													}
												}
											}
										}
										JOINT LeftHandIndex1
										{
											OFFSET 7.924831 -0.457527 2.345128
											CHANNELS 3 Xrotation Yrotation Zrotation
											JOINT LeftHandIndex2
											{
												OFFSET 3.643303 0.000000 0.000000
												CHANNELS 3 Xrotation Yrotation Zrotation
												JOINT LeftHandIndex3
												{
													OFFSET 3.810799 0.000000 0.000000
													CHANNELS 3 Xrotation Yrotation Zrotation
													JOINT LeftHandIndex4
													{
														OFFSET 2.403702 0.000000 0.000000
														CHANNELS 3 Xrotation Yrotation Zrotation
														End Site
														{
															OFFSET 0.000000 0.000000 0.000000
														}
													}
												}
											}
										}
										JOINT LeftHandMiddle1
										{
											OFFSET 8.563995 0.000000 -0.000000
											CHANNELS 3 Xrotation Yrotation Zrotation
											JOINT LeftHandMiddle2
											{
												OFFSET 3.861618 0.000000 0.000000
												CHANNELS 3 Xrotation Yrotation Zrotation
												JOINT LeftHandMiddle3
												{
													OFFSET 3.701603 0.000000 0.000000
													CHANNELS 3 Xrotation Yrotation Zrotation
													JOINT LeftHandMiddle4
													{
														OFFSET 2.322544 0.000000 0.000000
														CHANNELS 3 Xrotation Yrotation Zrotation
														End Site
														{
															OFFSET 0.000000 0.000000 0.000000
														}
													}
												}
											}
										}
										JOINT LeftHandRing1
										{
											OFFSET 8.426460 -0.424637 -3.286992
											CHANNELS 3 Xrotation Yrotation Zrotation
											JOINT LeftHandRing2
											{
												OFFSET 3.126408 0.000000 0.000000
												CHANNELS 3 Xrotation Yrotation Zrotation
												JOINT LeftHandRing3
												{
													OFFSET 3.085026 0.000000 0.000000
													CHANNELS 3 Xrotation Yrotation Zrotation
													JOINT LeftHandRing4
													{
														OFFSET 1.644005 0.000000 0.000000
														CHANNELS 3 Xrotation Yrotation Zrotation
														End Site
														{
															OFFSET 0.000000 0.000000 0.000000
														}
													}
												}
											}
										}
									}
								}
							}
						}
					}
					JOINT RightShoulder
					{
						OFFSET -2.196100 4.412496 0.070690
						CHANNELS 3 Xrotation Yrotation Zrotation
						JOINT RightShoulder_split
						{
							OFFSET -2.196100 4.412496 0.070690
							CHANNELS 3 Xrotation Yrotation Zrotation
							JOINT RightArm
							{
								OFFSET -8.771282 -2.981682 -0.094208
								CHANNELS 3 Xrotation Yrotation Zrotation
								JOINT RightForeArm
								{
									OFFSET -8.494598 0.000000 0.000000
									CHANNELS 3 Xrotation Yrotation Zrotation
									JOINT RightHand
									{
										OFFSET -18.483803 0.000000 0.000001
										CHANNELS 3 Xrotation Yrotation Zrotation
										JOINT RightHandThumb1
										{
											OFFSET -2.527351 -1.008072 2.575253
											CHANNELS 3 Xrotation Yrotation Zrotation
											JOINT RightHandThumb2
											{
												OFFSET -2.321518 -1.340328 1.340329
												CHANNELS 3 Xrotation Yrotation Zrotation
												JOINT RightHandThumb3
												{
													OFFSET -2.657753 -1.534454 1.534455
													CHANNELS 3 Xrotation Yrotation Zrotation
													JOINT RightHandThumb4
													{
														OFFSET -1.807510 -1.043568 1.043567
														CHANNELS 3 Xrotation Yrotation Zrotation
														End Site
														{
															OFFSET 0.000000 0.000000 0.000000
														}
													}
												}
											}
										}
										JOINT RightHandIndex1
										{
											OFFSET -8.811420 0.015533 2.887987
											CHANNELS 3 Xrotation Yrotation Zrotation
											JOINT RightHandIndex2
											{
												OFFSET -3.537502 0.000000 0.000000
												CHANNELS 3 Xrotation Yrotation Zrotation
												JOINT RightHandIndex3
												{
													OFFSET -3.356201 0.000000 0.000000
													CHANNELS 3 Xrotation Yrotation Zrotation
													JOINT RightHandIndex4
													{
														OFFSET -1.933098 0.000000 0.000000
														CHANNELS 3 Xrotation Yrotation Zrotation
														End Site
														{
															OFFSET 0.000000 0.000000 0.000000
														}
													}
												}
											}
										}
										JOINT RightHandMiddle1
										{
											OFFSET -8.178135 0.000000 0.000000
											CHANNELS 3 Xrotation Yrotation Zrotation
											JOINT RightHandMiddle2
											{
												OFFSET -3.901302 0.000000 0.000000
												CHANNELS 3 Xrotation Yrotation Zrotation
												JOINT RightHandMiddle3
												{
													OFFSET -3.909599 0.000000 0.000000
													CHANNELS 3 Xrotation Yrotation Zrotation
													JOINT RightHandMiddle4
													{
														OFFSET -2.376003 0.000000 0.000000
														CHANNELS 3 Xrotation Yrotation Zrotation
														End Site
														{
															OFFSET 0.000000 0.000000 0.000000
														}
													}
												}
											}
										}
										JOINT RightHandRing1
										{
											OFFSET -7.559013 0.014137 -2.865403
											CHANNELS 3 Xrotation Yrotation Zrotation
											JOINT RightHandRing2
											{
												OFFSET -3.449306 0.000000 0.000000
												CHANNELS 3 Xrotation Yrotation Zrotation
												JOINT RightHandRing3
												{
													OFFSET -3.362106 0.000000 0.000000
													CHANNELS 3 Xrotation Yrotation Zrotation
													JOINT RightHandRing4
													{
														OFFSET -2.076401 0.000000 0.000000
														CHANNELS 3 Xrotation Yrotation Zrotation
														End Site
														{
															OFFSET 0.000000 0.000000 0.000000
														}
													}
												}
											}
										}
									}
								}
							}
						}
					}
				}
			}
		}
	}
	JOINT LeftUpLeg
	{
		OFFSET 10.205400 -3.823500 0.155100
		CHANNELS 3 Xrotation Yrotation Zrotation
		JOINT LeftLeg
		{
			OFFSET 0.708757 -12.982077 0.567790
			CHANNELS 3 Xrotation Yrotation Zrotation
			JOINT LeftFoot
			{
				OFFSET -0.708756 -10.717838 -2.184338
				CHANNELS 3 Xrotation Yrotation Zrotation
				JOINT LeftToeBase
				{
					OFFSET 0.108149 -7.191104 7.560241
					CHANNELS 3 Xrotation Yrotation Zrotation
					JOINT LeftToe_End
					{
						OFFSET 0.070230 0.081724 4.490308
						CHANNELS 3 Xrotation Yrotation Zrotation
						End Site
						{
							OFFSET 0.000000 0.000000 0.000000
						}
					}
				}
			}
		}
	}
	JOINT RightUpLeg
	{
		OFFSET -10.205400 -3.823500 0.005500
		CHANNELS 3 Xrotation Yrotation Zrotation
		JOINT RightLeg
		{
			OFFSET -0.708756 -12.982134 0.610632
			CHANNELS 3 Xrotation Yrotation Zrotation
			JOINT RightFoot
			{
				OFFSET 0.708754 -10.717769 -1.945823
				CHANNELS 3 Xrotation Yrotation Zrotation
				JOINT RightToeBase
				{
					OFFSET -0.108140 -7.191069 7.372968
					CHANNELS 3 Xrotation Yrotation Zrotation
					JOINT RightToe_End
					{
						OFFSET -0.070227 0.081735 4.479403
						CHANNELS 3 Xrotation Yrotation Zrotation
						End Site
						{
							OFFSET 0.000000 0.000000 0.000000
						}
					}
				}
			}
		}
	}
}
MOTION
Frames: 5
Frame Time: 0.016667
0.143231 30.515663 -0.011229 -0.670259 -15.820562 -1.471788 3.776657 1.219136 0.063577 2.523601 1.177439 -0.059023 0.000000 0.000000 0.000000 2.503912 1.224028 -0.090937 0.457847 0.824230 4.848787 8.545303 11.130797 -0.783160 0.000001 0.000000 0.000001 0.513442 1.082370 14.986393 0.000000 0.000000 0.000000 -49.547452 -53.697165 -56.631994 -0.000008 -52.589544 0.000001 -101.282532 -0.136443 2.488792 35.234555 -17.219588 -17.236877 29.406830 28.726533 -29.411785 9.113606 14.378714 -9.922579 -0.000000 0.000001 -0.000000 0.797685 3.221898 -27.804752 0.799594 3.225533 -27.838615 0.202683 1.661534 -13.908063 -0.000000 -0.000001 0.000002 0.796786 3.220219 -27.788719 0.800495 3.227230 -27.854650 0.202689 1.661528 -13.908054 -0.000001 -0.000003 -0.000003 0.797687 3.221917 -27.804758 0.799605 3.225521 -27.838615 0.202675 1.661523 -13.908055 0.000002 -0.000001 -0.000001 0.384725 -1.325536 -0.769390 0.000000 0.000000 0.000000 3.865829 95.192162 -10.302221 -0.000000 25.659950 -0.000001 -50.084251 -3.447581 -9.781612 40.606649 -3.110553 26.124234 -37.849507 -44.265008 -46.874960 -12.282872 -22.415236 -17.633349 0.000002 -0.000000 0.000001 3.635335 -6.111001 61.464490 7.728625 -6.904471 96.464462 2.305160 -5.174795 47.998748 0.000001 -0.000000 -0.000001 3.635328 -6.111004 61.464510 7.728631 -6.904484 96.464462 2.305158 -5.174792 47.998755 -0.000002 0.000001 -0.000000 3.635327 -6.110999 61.464510 7.728631 -6.904474 96.464469 2.305158 -5.174795 47.998738 -0.000001 -0.000001 -0.000002 -32.905652 15.727858 17.250208 59.609895 1.767455 10.541635 -27.145304 5.168810 -14.972844 -0.201334 -0.000003 -0.000001 -0.000000 -0.000001 0.000000 -25.453501 -20.282952 -13.506867 56.416355 -1.336409 -10.330241 -30.856349 -5.744678 14.252781 -0.041270 -0.000002 0.000003 0.000000 -0.000002 0.000000 
0.153024 30.504795 -0.004939 -0.674013 -15.768072 -1.460099 3.768352 1.198927 0.109323 2.514742 1.164376 -0.024040 0.000000 0.000000 0.000000 2.495217 1.211956 -0.055856 0.444796 0.831762 4.833575 8.560009 11.165283 -0.906731 0.000000 -0.000000 -0.000000 0.748162 0.781686 15.125018 0.000000 0.000000 0.000000 -49.125914 -53.329902 -56.178886 0.000001 -52.952493 -0.000007 -101.491284 -0.073157 2.701052 35.234562 -17.219588 -17.236875 29.406836 28.726533 -29.411785 9.113603 14.378720 -9.922578 -0.000005 -0.000003 -0.000002 0.797689 3.221898 -27.804747 0.799593 3.225536 -27.838613 0.202679 1.661535 -13.908061 0.000002 -0.000001 -0.000000 0.796793 3.220218 -27.788715 0.800498 3.227228 -27.854649 0.202695 1.661529 -13.908053 0.000002 0.000000 0.000001 0.797696 3.221912 -27.804752 0.799607 3.225526 -27.838615 0.202672 1.661523 -13.908054 -0.000000 0.000001 0.000001 0.387288 -1.315633 -0.755376 0.000000 0.000000 0.000000 4.637015 95.148654 -10.970127 -0.000009 25.704901 0.000020 -50.030323 -3.689098 -9.647747 40.606656 -3.110552 26.124236 -37.849507 -44.265008 -46.874960 -12.282873 -22.415229 -17.633349 -0.000001 -0.000000 0.000001 3.635330 -6.111001 61.464497 7.728625 -6.904469 96.464462 2.305166 -5.174793 47.998751 -0.000000 0.000002 0.000001 3.635325 -6.111004 61.464517 7.728629 -6.904483 96.464462 2.305156 -5.174790 47.998755 -0.000001 0.000002 -0.000001 3.635323 -6.111000 61.464504 7.728628 -6.904464 96.464469 2.305158 -5.174796 47.998741 0.000001 0.000000 -0.000001 -32.916652 15.652316 17.164774 59.692623 1.823259 10.539336 -27.191232 5.178268 -14.965361 -0.201400 0.000007 -0.000007 0.000000 0.000000 0.000000 -25.531592 -20.469291 -13.691731 56.516069 -1.168503 -10.327882 -30.934576 -5.706526 14.203518 -0.041342 0.000003 -0.000001 0.000000 0.000002 -0.000000 
0.165176 30.492340 0.002151 -0.692077 -15.711974 -1.451691 3.767822 1.181828 0.162866 2.511989 1.154432 0.015427 0.000000 0.000000 0.000000 2.492559 1.203282 -0.016407 0.427322 0.835601 4.813936 8.559340 11.171112 -1.001659 0.000000 0.000000 0.000001 0.696103 0.770071 15.279886 0.000000 0.000000 0.000000 -49.162865 -53.221527 -56.426092 -0.000004 -52.964709 -0.000009 -101.561553 0.130815 2.653071 35.234559 -17.219592 -17.236875 29.406833 28.726533 -29.411785 9.113599 14.378716 -9.922575 -0.000001 0.000003 -0.000003 0.797685 3.221900 -27.804752 0.799595 3.225535 -27.838615 0.202680 1.661533 -13.908064 0.000002 -0.000001 -0.000002 0.796787 3.220217 -27.788719 0.800496 3.227227 -27.854649 0.202689 1.661530 -13.908049 -0.000001 0.000001 -0.000000 0.797690 3.221915 -27.804752 0.799601 3.225521 -27.838615 0.202676 1.661522 -13.908055 -0.000001 0.000000 0.000001 0.383949 -1.340510 -0.713319 0.000000 0.000000 0.000000 5.054967 95.126299 -11.279620 0.000005 25.763205 -0.000008 -50.049458 -3.937759 -9.643310 40.606656 -3.110549 26.124241 -37.849507 -44.265015 -46.874960 -12.282876 -22.415229 -17.633349 -0.000002 -0.000000 0.000001 3.635329 -6.111001 61.464497 7.728624 -6.904469 96.464462 2.305164 -5.174795 47.998751 -0.000000 0.000001 0.000001 3.635325 -6.111004 61.464517 7.728625 -6.904486 96.464462 2.305154 -5.174791 47.998751 -0.000001 -0.000000 -0.000002 3.635325 -6.110999 61.464510 7.728626 -6.904465 96.464469 2.305157 -5.174798 47.998731 -0.000001 -0.000000 0.000002 -32.903801 15.547478 17.055047 59.786565 1.908972 10.536153 -27.247327 5.196928 -14.969265 -0.201735 -0.000002 -0.000000 0.000000 0.000000 -0.000000 -25.605034 -20.669495 -13.897838 56.626718 -0.982668 -10.325086 -31.019775 -5.665791 14.152452 -0.041351 -0.000002 0.000004 0.000000 0.000001 -0.000000 
0.181227 30.478733 0.009991 -0.726589 -15.663873 -1.444086 3.775108 1.169359 0.228041 2.515587 1.148444 0.062321 0.000000 0.000000 0.000000 2.496205 1.198885 0.030350 0.407236 0.837272 4.781249 8.539273 11.143541 -1.073497 0.000001 -0.000000 -0.000000 0.649405 0.743681 15.444422 0.000000 0.000000 0.000000 -49.232226 -53.041282 -56.699429 -0.000010 -52.985128 -0.000003 -101.509063 0.375131 2.524198 35.234562 -17.219588 -17.236879 29.406836 28.726533 -29.411785 9.113603 14.378713 -9.922574 -0.000003 -0.000002 -0.000000 0.797693 3.221898 -27.804749 0.799596 3.225534 -27.838615 0.202677 1.661533 -13.908066 0.000000 -0.000003 -0.000000 0.796799 3.220218 -27.788719 0.800496 3.227226 -27.854650 0.202687 1.661529 -13.908055 0.000001 -0.000002 -0.000002 0.797692 3.221914 -27.804752 0.799608 3.225525 -27.838618 0.202673 1.661523 -13.908053 -0.000001 -0.000001 0.000000 0.376740 -1.384603 -0.671985 0.000000 0.000000 0.000000 5.291938 95.121210 -11.413577 0.000001 25.831328 -0.000010 -50.103443 -4.169151 -9.766415 40.606656 -3.110554 26.124241 -37.849507 -44.265011 -46.874963 -12.282871 -22.415226 -17.633349 0.000001 -0.000004 0.000001 3.635336 -6.111001 61.464497 7.728625 -6.904469 96.464462 2.305156 -5.174798 47.998751 0.000000 -0.000001 0.000001 3.635328 -6.111004 61.464517 7.728628 -6.904486 96.464462 2.305158 -5.174791 47.998748 -0.000001 0.000000 0.000002 3.635331 -6.110998 61.464510 7.728626 -6.904464 96.464469 2.305166 -5.174795 47.998738 -0.000001 -0.000002 0.000002 -32.857212 15.427307 16.920069 59.884961 2.028149 10.531599 -27.316604 5.222833 -14.983745 -0.202582 0.000002 0.000001 -0.000000 0.000000 0.000000 -25.675028 -20.853669 -14.117955 56.748838 -0.790313 -10.322461 -31.103397 -5.629275 14.108097 -0.041308 0.000015 0.000003 0.000000 0.000003 0.000000 
0.203387 30.464546 0.018330 -0.776282 -15.641169 -1.433475 3.788797 1.165588 0.308021 2.524802 1.149002 0.120567 0.000000 0.000000 0.000000 2.505399 1.201391 0.088318 0.385439 0.838615 4.727867 8.503753 11.082635 -1.138269 -0.000000 -0.000000 -0.000000 0.614099 0.699955 15.618218 0.000000 0.000000 0.000000 -49.322586 -52.782834 -56.988708 -0.000017 -53.012759 -0.000018 -101.382089 0.591601 2.322973 35.234562 -17.219585 -17.236877 29.406840 28.726533 -29.411785 9.113603 14.378718 -9.922579 -0.000001 0.000002 -0.000000 0.797688 3.221900 -27.804747 0.799593 3.225531 -27.838615 0.202680 1.661534 -13.908063 0.000002 0.000000 0.000003 0.796790 3.220220 -27.788719 0.800501 3.227230 -27.854649 0.202692 1.661530 -13.908053 0.000002 -0.000002 0.000003 0.797694 3.221917 -27.804763 0.799603 3.225523 -27.838615 0.202673 1.661522 -13.908052 0.000000 -0.000002 0.000000 0.369206 -1.423143 -0.665796 0.000000 0.000000 0.000000 5.529683 95.119270 -11.566528 0.000002 25.903103 -0.000003 -50.137523 -4.369475 -9.973907 40.606653 -3.110549 26.124236 -37.849504 -44.265011 -46.874960 -12.282878 -22.415231 -17.633346 0.000003 0.000001 0.000002 3.635332 -6.111001 61.464497 7.728622 -6.904469 96.464469 2.305158 -5.174797 47.998745 0.000002 0.000002 0.000003 3.635320 -6.111003 61.464517 7.728628 -6.904482 96.464462 2.305148 -5.174793 47.998748 0.000001 -0.000001 -0.000003 3.635327 -6.111000 61.464510 7.728631 -6.904472 96.464469 2.305156 -5.174798 47.998738 -0.000004 0.000001 0.000002 -32.770397 15.315429 16.762153 59.980454 2.183102 10.525053 -27.403994 5.251857 -15.005444 -0.204019 0.000011 -0.000001 -0.000000 0.000001 0.000000 -25.752139 -20.988881 -14.345892 56.884066 -0.600880 -10.320687 -31.172802 -5.600894 14.077680 -0.041154 0.000003 0.000004 0.000000 0.000003 -0.000000 
